<?xml version="1.0" encoding="UTF-8" standalone="no"?>
<svg
   xmlns:dc="http://purl.org/dc/elements/1.1/"
   xmlns:cc="http://creativecommons.org/ns#"
   xmlns:rdf="http://www.w3.org/1999/02/22-rdf-syntax-ns#"
   xmlns:svg="http://www.w3.org/2000/svg"
   xmlns="http://www.w3.org/2000/svg"
   xmlns:sodipodi="http://sodipodi.sourceforge.net/DTD/sodipodi-0.dtd"
   xmlns:inkscape="http://www.inkscape.org/namespaces/inkscape"
   viewBox="0.0 0.0 348.0 348.0"
   fill="none"
   version="1.1"
   id="svg831"
   sodipodi:docname="The Giant's Drink.svg"
   inkscape:version="0.92.4 (5da689c313, 2019-01-14)">
  <metadata
     id="metadata837">
    <rdf:RDF>
      <cc:Work
         rdf:about="">
        <dc:format>image/svg+xml</dc:format>
        <dc:type
           rdf:resource="http://purl.org/dc/dcmitype/StillImage" />
      </cc:Work>
    </rdf:RDF>
  </metadata>
  <defs
     id="defs835" />
  <sodipodi:namedview
     pagecolor="#ffffff"
     bordercolor="#666666"
     borderopacity="1"
     objecttolerance="10"
     gridtolerance="10"
     guidetolerance="10"
     inkscape:pageopacity="0"
     inkscape:pageshadow="2"
     inkscape:window-width="1366"
     inkscape:window-height="745"
     id="namedview833"
     showgrid="false"
     inkscape:zoom="1.1744475"
     inkscape:cx="190.54398"
     inkscape:cy="197.72429"
     inkscape:window-x="-8"
     inkscape:window-y="-8"
     inkscape:window-maximized="1"
     inkscape:current-layer="svg831" />
  <path
     d="M5.079 5.776h336.913v337.67H5.08z"
     id="path827"
     style="stroke-width:1.99937008;stroke-miterlimit:4;stroke-dasharray:none"
     stroke-width="2"
     stroke="#000" />
  <path
     d="M282.734 40.554c0-8.376 6.966-15.165 15.56-15.165 4.126 0 8.084 1.597 11.001 4.441 2.918 2.844 4.558 6.702 4.558 10.724 0 8.376-6.966 15.165-15.56 15.165-8.593 0-15.559-6.79-15.559-15.165z"
     stroke-width="2"
     stroke="#000"
     id="path829" />
  <path
     inkscape:connector-curvature="0"
     id="path827-6"
     style="stroke:#000000;stroke-width:1.9993701;stroke-miterlimit:4;stroke-dasharray:none"
     d="m 28.291774,260.44211 v 49.44727 H 133.2859 v -49.44727 z" />
  <path
     inkscape:connector-curvature="0"
     d="m 145.99464,260.46884 h 104.99385 v 49.44624 H 145.99495 Z"
     id="path827-6-2"
     style="stroke:#000000;stroke-width:1.9993701;stroke-miterlimit:4;stroke-dasharray:none" />
  <path
     inkscape:connector-curvature="0"
     d="m 63.283654,276.0391 h 35.267798 v 17.04892 H 63.283754 Z"
     id="path827-6-8"
     style="stroke:#000000;stroke-width:1.9993701;stroke-miterlimit:4;stroke-dasharray:none" />
  <path
     inkscape:connector-curvature="0"
     d="m 180.43864,276.06616 h 35.2678 v 17.04892 h -35.2677 z"
     id="path827-6-8-1"
     style="stroke:#000000;stroke-width:1.9993701;stroke-miterlimit:4;stroke-dasharray:none" />
  <path
     inkscape:connector-curvature="0"
     id="path2045"
     style="fill:#000000;stroke-width:0.37795275;stroke-miterlimit:4;stroke-dasharray:none"
     d="m 93.096452,67.010488 c -0.0716,6.2e-4 -0.13671,0.001 -0.20898,0.002 0.0558,0.0159 0.11148,0.0254 0.16992,0.0215 0.0152,-10e-4 0.0268,-0.0132 0.0391,-0.0234 z m 32.517578,0.15234 c 0.0963,0.45312 0.1791,0.93025 0.26367,1.36133 0.45356,0.0382 0.73475,0.0774 0.83789,0.12109 0.26904,-0.72526 0.28064,-0.83793 0.14844,-0.0547 -0.011,0.0304 -0.0322,0.0859 -0.0469,0.12696 0.2339,0.29128 0.23516,1.43747 -0.0293,1.78711 -0.10479,0.13859 -0.19141,0.33503 -0.19141,0.43554 0,0.41964 -0.43268,1.05616 -0.85352,1.25586 -0.36116,0.17139 -0.44849,0.28896 -0.46289,0.62695 -0.01,0.22869 -0.0332,0.64801 -0.0527,0.9336 -0.0195,0.28559 -0.10114,1.98071 -0.18164,3.76562 -0.0805,1.78492 -0.20685,4.0342 -0.28125,4.99805 -0.0743,0.96385 -0.18871,2.71649 -0.25391,3.89453 -0.0652,1.17804 -0.17524,2.40333 -0.24414,2.72461 -0.0688,0.32128 -0.12786,1.38744 -0.13086,2.36914 -0.005,1.49754 -0.0378,1.78516 -0.20117,1.78516 -0.16122,0 -0.19336,0.24467 -0.19336,1.41797 0,1.52359 -0.0578,1.82812 -0.33984,1.82812 -0.13503,0 -0.17969,0.20164 -0.17969,0.79883 0,0.43995 -0.0846,1.09768 -0.1875,1.46094 -0.10287,0.36325 -0.24777,1.12804 -0.32227,1.699212 -0.15502,1.18796 -0.42541,2.53564 -0.54687,2.72656 -0.0454,0.0714 -0.12502,0.50824 -0.17774,0.9707 -0.0527,0.46246 -0.17719,1.06737 -0.27539,1.3457 -0.0982,0.27833 -0.17773,0.76698 -0.17773,1.08399 0,0.317 -0.0566,0.68083 -0.125,0.80859 -0.0684,0.12776 -0.18813,0.63469 -0.26562,1.12695 -0.0775,0.49227 -0.19091,1.06902 -0.25391,1.28321 -0.11877,0.40374 -0.47724,2.05806 -0.85547,3.94922 -0.12012,0.60064 -0.29984,1.2855 -0.39844,1.52148 -0.0986,0.23598 -0.17971,0.56397 -0.17968,0.73047 0,0.16651 -0.0677,0.37238 -0.15235,0.45703 -0.17464,0.17463 -0.62005,1.52658 -0.62305,1.89063 -0.002,0.23825 -0.23731,0.8495 -0.5957,1.55468 -0.10278,0.20212 -0.18555,0.45463 -0.18555,0.56055 0,0.1777 -0.36301,1.15105 -0.67968,1.82227 -0.0736,0.15583 -0.0983,0.3767 -0.0547,0.49023 0.0457,0.11915 -0.0296,0.31474 -0.17774,0.46289 -0.14116,0.14118 -0.25585,0.36902 -0.25585,0.50586 0,0.13684 -0.0497,0.26722 -0.10938,0.29102 -0.0597,0.0238 -0.29228,0.52954 -0.51758,1.12304 -0.22529,0.59351 -0.49775,1.16768 -0.60547,1.27539 -0.10774,0.10771 -0.19531,0.28813 -0.19531,0.40235 0,0.11422 -0.0833,0.30135 -0.18359,0.41406 -0.24762,0.27829 -0.94516,1.67911 -1.05274,2.11328 -0.0479,0.19342 -0.16944,0.41885 -0.26953,0.50195 -0.10008,0.0831 -0.18164,0.28432 -0.18164,0.44532 0,0.16101 -0.0882,0.36422 -0.19531,0.45312 -0.10712,0.0889 -0.19531,0.24616 -0.19531,0.34961 0,0.10345 -0.0882,0.27571 -0.19532,0.38281 -0.10712,0.10709 -0.19336,0.32949 -0.19336,0.49414 0,0.16465 -0.0882,0.37204 -0.19531,0.46094 -0.10712,0.0889 -0.19531,0.26886 -0.19531,0.40039 0,0.13154 -0.11698,0.30251 -0.25977,0.37891 -0.14805,0.0792 -0.25781,0.27097 -0.25781,0.44726 0,0.17003 -0.05,0.32972 -0.10937,0.35352 -0.0594,0.0238 -0.26186,0.36513 -0.44922,0.75781 -0.18736,0.39268 -0.52026,1.03506 -0.74024,1.42774 -0.22024,0.39315 -0.37721,0.84029 -0.34961,0.99609 0.0372,0.2103 -0.0274,0.3025 -0.2539,0.35937 -0.16763,0.0421 -0.30469,0.12194 -0.30469,0.17774 0,0.0558 -0.23395,0.46088 -0.51953,0.90039 -0.28559,0.43951 -0.51953,0.88844 -0.51953,0.99609 0,0.10765 -0.11698,0.25759 -0.25977,0.33399 -0.1428,0.0764 -0.25976,0.22624 -0.25976,0.33203 0,0.1058 -0.26271,0.62504 -0.58399,1.1543 -0.32129,0.52926 -0.58398,1.00348 -0.58398,1.05468 0,0.0512 -0.19139,0.33402 -0.42578,0.62696 -0.23438,0.29294 -0.49096,0.67892 -0.56836,0.85742 -0.0774,0.17848 -0.33659,0.56941 -0.57813,0.86914 -0.24154,0.29974 -0.61062,0.82515 -0.81836,1.16797 -0.20775,0.34284 -0.48518,0.74001 -0.61719,0.88281 -0.13201,0.14279 -0.43247,0.55122 -0.66796,0.9082 -0.98952,1.50008 -1.55055,2.25822 -1.72266,2.32422 -0.10075,0.0387 -0.18359,0.13559 -0.18359,0.2168 0,0.1534 -0.33375,0.59824 -1.11719,1.48437 -0.519058,0.5871 -1.201238,1.50751 -1.453128,1.96289 -0.0929,0.16794 -0.2827,0.36691 -0.42187,0.44141 -0.13917,0.0745 -0.25391,0.20702 -0.25391,0.29492 0,0.0879 -0.26375,0.38979 -0.58593,0.66993 -0.38744,0.33687 -0.63066,0.67675 -0.71876,1.0039 -0.0915,0.33966 -0.2053,0.49414 -0.36523,0.49414 -0.21692,0 -0.71577,0.53738 -1.20703,1.29883 -0.59861,0.92784 -2.8373,2.98237 -3.25195,2.98437 -0.12243,6.9e-4 -0.28493,0.11698 -0.36133,0.25977 -0.0904,0.16893 -0.27208,0.25977 -0.51953,0.25977 -0.40069,0 -0.72645,0.38553 -0.60157,0.71093 0.0363,0.0946 -0.0173,0.28023 -0.11718,0.41211 -0.0999,0.13189 -0.18255,0.47417 -0.18555,0.75977 -0.004,0.43843 -0.0664,0.55351 -0.39453,0.74023 -0.23333,0.13277 -0.38867,0.32653 -0.38867,0.48633 0,0.14637 -0.11697,0.48553 -0.25977,0.75195 -0.14279,0.26642 -0.25976,0.6203 -0.25976,0.78711 0,0.1668 -0.0862,0.39095 -0.19336,0.49805 -0.10712,0.10709 -0.19532,0.35824 -0.19532,0.55859 0,0.20034 -0.0882,0.43656 -0.19531,0.52539 -0.11682,0.097 -0.19336,0.38192 -0.19336,0.71094 0,0.30157 -0.0834,0.71847 -0.18359,0.92578 -0.10014,0.20731 -0.24863,0.9822 -0.33203,1.72266 l -0.15235,1.3457 0.33399,0.34961 c 0.18357,0.19159 0.33398,0.41128 0.33398,0.48828 0,0.077 0.11431,0.16858 0.25391,0.20508 0.1396,0.0365 0.42885,0.34266 0.64258,0.67969 0.21374,0.33702 0.56674,0.7718 0.78515,0.9668 0.33328,0.29755 0.40385,0.46612 0.43946,1.04882 0.0233,0.38186 0.11019,0.7184 0.19335,0.7461 0.0833,0.0277 0.15324,0.20609 0.15626,0.39648 0.003,0.1904 0.088,0.69662 0.1914,1.125 0.21864,0.90557 0.24895,1.75196 0.0625,1.75196 -0.0714,0 -0.12795,0.18983 -0.12695,0.42187 0.003,0.62928 -0.42741,2.4325 -0.58203,2.4375 -0.18682,0.006 -0.74455,0.53238 -0.97852,0.92383 -0.53064,0.88778 -0.73437,1.1437 -1.0664,1.33984 -0.19859,0.11731 -0.36094,0.31269 -0.36133,0.4336 -4.4e-4,0.12091 -0.0784,0.3699 -0.17383,0.55273 -0.0954,0.18283 -0.21563,0.73076 -0.26563,1.21875 -0.05,0.48799 -0.15688,1.00991 -0.23828,1.16016 -0.0814,0.15024 -0.19199,1.09224 -0.24609,2.09179 -0.21434,3.95977 -0.50507,8.08698 -0.6211,8.82618 -0.0672,0.42838 -0.18682,2.47246 -0.26562,4.54296 -0.0788,2.0705 -0.1766,4.17406 -0.2168,4.67383 -0.0402,0.49977 -0.11928,2.51511 -0.17578,4.47852 -0.0565,1.9634 -0.17352,5.46867 -0.26172,7.78906 -0.1278,3.36433 -0.1278,4.74409 0.002,6.81445 0.0892,1.42793 0.21856,2.67057 0.28906,2.75977 0.0705,0.0893 0.24366,0.16211 0.38281,0.16211 0.13915,0 0.34018,0.0863 0.44727,0.19336 0.1071,0.10711 0.36513,0.19531 0.57422,0.19531 0.20909,0 0.38085,0.0526 0.38086,0.11719 0,0.0646 0.20518,0.36301 0.45507,0.66211 0.34024,0.40724 0.45313,0.66402 0.45313,1.02539 0,0.38418 0.0789,0.54145 0.38476,0.76758 0.2113,0.15623 0.43154,0.2832 0.49024,0.2832 0.23446,0 1.5918,0.9411 1.5918,1.10351 0,0.0956 0.17448,0.25091 0.38867,0.34571 0.25715,0.11382 0.39062,0.26635 0.39062,0.44922 0,0.15233 0.0863,0.35055 0.19336,0.43945 0.10712,0.0889 0.19531,0.32567 0.19531,0.52734 0,0.40004 0.51027,1.44909 0.91407,1.87891 0.13959,0.14859 0.2539,0.37492 0.2539,0.50195 0,0.12703 0.11698,0.26143 0.25977,0.29883 0.16603,0.0434 0.25976,0.17736 0.25976,0.37109 0,0.16662 0.0762,0.34914 0.16797,0.40626 0.0918,0.0571 0.30103,0.27995 0.46485,0.49414 0.16383,0.21419 0.59967,0.71848 0.96875,1.12109 0.9458,1.03174 1.2539,1.41404 1.2539,1.55078 0,0.0653 0.1407,0.11914 0.3125,0.11914 0.24849,0 0.29814,0.0533 0.24414,0.25977 -0.0382,0.14585 -0.004,0.25976 0.0781,0.25976 0.0802,1e-5 0.62826,0.47371 1.2168,1.05469 0.58851,0.581 1.20068,1.14257 1.36132,1.24805 0.16064,0.1055 0.29401,0.25884 0.29492,0.33984 0.003,0.18193 1.652958,0.99814 2.009768,0.99414 0.22335,-0.002 1.33741,0.47212 3.375,1.43945 0.91607,0.43491 1.556,0.80916 1.6543,0.96875 0.0526,0.0855 0.24349,0.19444 0.42578,0.24024 0.18229,0.0457 0.6806,0.40237 1.10547,0.79297 0.42487,0.39059 0.82788,0.70898 0.89648,0.70898 0.0686,0 0.3063,0.26271 0.52735,0.58399 0.22105,0.32129 0.48636,0.58593 0.59179,0.58593 0.10543,0 0.24329,0.13038 0.30469,0.29102 0.0614,0.16065 0.23573,0.40305 0.38672,0.53906 0.15099,0.13601 0.27344,0.31895 0.27344,0.40625 0,0.0873 0.0799,0.22555 0.17773,0.30664 0.0978,0.0812 0.27806,0.4236 0.40039,0.76172 0.32778,0.90605 0.77029,1.84766 0.86719,1.84766 0.0466,0 0.12423,0.22054 0.17383,0.48828 0.0496,0.26774 0.18761,0.68956 0.30664,0.93945 0.034,0.0714 0.0617,0.17022 0.0879,0.27735 0.43814,-0.0435 0.90437,-0.0598 1.39062,-0.0586 -0.0251,-0.41624 -0.0622,-0.68571 -0.11718,-0.75195 -0.084,-0.10121 -0.22385,-0.47405 -0.31055,-0.83008 -0.0867,-0.35604 -0.22394,-0.73471 -0.30664,-0.8418 -0.20314,-0.263 -0.53221,-0.97319 -0.79688,-1.71875 -0.12003,-0.33812 -0.29868,-0.68051 -0.39648,-0.76172 -0.0978,-0.0811 -0.17774,-0.21878 -0.17774,-0.30468 0,-0.0859 -0.14571,-0.29326 -0.32421,-0.46094 -0.17849,-0.16768 -0.32618,-0.37022 -0.32618,-0.44922 0,-0.24706 -3.26227,-3.23881 -3.95898,-3.63086 -0.21419,-0.12051 -0.68012,-0.39139 -1.03711,-0.60156 -0.35698,-0.21016 -0.88434,-0.49215 -1.16992,-0.62695 -2.19852,-1.03767 -3.15797,-1.44141 -3.42383,-1.44141 -0.1698,1.2e-4 -0.61704,-0.17683 -0.99414,-0.39258 -0.74556,-0.42657 -3.175778,-2.65044 -3.175778,-2.90625 0,-0.16341 -0.60808,-0.78549 -0.85156,-0.87109 -0.35725,-0.12554 -2.65235,-2.80763 -2.65235,-3.09961 0,-0.0869 -0.23783,-0.44133 -0.52734,-0.78711 -0.67517,-0.80643 -1.16016,-1.72291 -1.16016,-2.18945 0,-0.20167 -0.0882,-0.4404 -0.19531,-0.5293 -0.10712,-0.0889 -0.19531,-0.29467 -0.19531,-0.45703 0,-0.17945 -0.19039,-0.45996 -0.48633,-0.7168 -1.66629,-1.44617 -2.48697,-2.27244 -2.82617,-2.84375 -0.21211,-0.35724 -0.45963,-0.65133 -0.54883,-0.65234 -0.0893,-0.001 -0.16211,-0.0581 -0.16211,-0.12696 0,-0.29813 -0.81673,-1.04481 -1.14844,-1.04882 -0.18895,-0.002 -0.46831,-0.10637 -0.61914,-0.23243 -0.45392,-0.3794 -0.62024,-3.55089 -0.43359,-8.26562 0.082,-2.0705 0.19746,-5.39934 0.25586,-7.39844 0.0584,-1.9991 0.13783,-4.04516 0.17773,-4.54492 0.0399,-0.49978 0.138,-2.60136 0.2168,-4.67188 0.0788,-2.0705 0.19842,-4.11459 0.26562,-4.54296 0.11602,-0.73921 0.4048,-4.86836 0.61914,-8.82813 0.0541,-0.99955 0.16484,-1.93769 0.24414,-2.08398 0.0793,-0.14629 0.18132,-0.64294 0.22852,-1.10352 0.10017,-0.97803 0.33393,-1.55985 0.89258,-2.22461 0.62056,-0.73843 0.9789,-1.22696 1.0664,-1.45508 0.0439,-0.11427 0.15023,-0.20703 0.23633,-0.20703 0.0861,-1e-5 0.30417,-0.16108 0.48438,-0.35742 0.33461,-0.36457 0.75976,-1.82322 0.75976,-2.60742 0,-0.21761 0.0575,-0.43246 0.12891,-0.47656 0.20301,-0.12549 0.1528,-2.18665 -0.0781,-3.20313 -0.1445,-0.63526 -0.1662,-0.94275 -0.0703,-1.00195 0.091,-0.0563 0.0265,-0.31669 -0.18555,-0.75977 -0.17731,-0.37048 -0.35573,-0.92309 -0.39843,-1.22851 -0.0427,-0.30541 -0.2461,-0.79962 -0.45117,-1.09766 -0.20506,-0.29805 -0.43009,-0.69305 -0.5,-0.87695 -0.1456,-0.38294 -0.29024,-0.41849 -0.52735,-0.13282 -0.14633,0.17636 -0.22008,0.1478 -0.60937,-0.22851 -0.4326,-0.41815 -0.43907,-0.44317 -0.35547,-1.20508 0.047,-0.42838 0.16714,-0.94894 0.26758,-1.15625 0.10041,-0.20731 0.18164,-0.62421 0.18164,-0.92578 0,-0.32903 0.0785,-0.61198 0.19531,-0.70898 0.10712,-0.0889 0.19531,-0.32284 0.19531,-0.51954 0,-0.19671 0.0863,-0.43063 0.19336,-0.51953 0.10712,-0.0889 0.19531,-0.30434 0.19531,-0.47851 0,-0.43721 0.57512,-1.61469 0.97071,-1.98633 0.24345,-0.22872 0.32903,-0.44182 0.33203,-0.83594 0.006,-0.76459 0.22318,-0.98242 0.97656,-0.98242 0.76991,0 1.35547,-0.46672 1.35547,-1.07813 0,-0.30162 0.25562,-0.64753 1.25195,-1.69531 0.68861,-0.72418 1.38956,-1.53499 1.5586,-1.80273 0.16904,-0.26774 0.38948,-0.48633 0.48828,-0.48633 0.23178,0 0.98437,-0.85587 0.98437,-1.11914 0,-0.11087 0.43914,-0.67784 0.97461,-1.25977 0.53547,-0.58194 0.972658,-1.11102 0.972658,-1.17382 0,-0.0628 0.17665,-0.32467 0.39258,-0.58399 1.21676,-1.46115 1.64972,-2.00151 2.375,-2.95898 0.44108,-0.5823 1.06542,-1.44654 1.38672,-1.91993 0.32128,-0.47336 0.76041,-1.08334 0.9746,-1.35546 0.21418,-0.27213 0.5344,-0.74142 0.7129,-1.04297 0.17849,-0.30156 0.52213,-0.79149 0.76367,-1.08985 0.24154,-0.29836 0.50268,-0.68868 0.58007,-0.86718 0.0774,-0.17849 0.33203,-0.56449 0.56641,-0.85743 0.23438,-0.29294 0.42774,-0.5738 0.42774,-0.625 0,-0.0512 0.26269,-0.52738 0.58398,-1.05664 0.32128,-0.52926 0.58398,-1.01275 0.58398,-1.07421 0,-0.0615 0.11698,-0.21648 0.25977,-0.34571 0.1428,-0.12922 0.25977,-0.31461 0.25977,-0.41211 -10e-6,-0.2891 0.6026,-1.15826 1.16406,-1.67773 0.40286,-0.37274 0.52344,-0.58012 0.52344,-0.90235 -10e-6,-0.25792 0.22267,-0.81032 0.58203,-1.43945 0.32075,-0.56153 0.58346,-1.08746 0.58398,-1.16797 5.3e-4,-0.0805 0.0882,-0.21774 0.19531,-0.30664 0.10711,-0.0889 0.19532,-0.26373 0.19532,-0.38672 0,-0.12298 0.11696,-0.32781 0.25976,-0.45703 0.14279,-0.12923 0.25977,-0.33599 0.25977,-0.45898 0,-0.12299 0.0882,-0.29587 0.19531,-0.38477 0.10712,-0.0889 0.19336,-0.29407 0.19336,-0.45508 0,-0.16101 0.0882,-0.36617 0.19531,-0.45507 0.10712,-0.0889 0.19531,-0.26337 0.19531,-0.38868 0,-0.12531 0.0863,-0.29977 0.19336,-0.38867 0.10712,-0.0889 0.19532,-0.29407 0.19532,-0.45508 0,-0.161 0.0815,-0.36026 0.18164,-0.44336 0.10009,-0.0831 0.22163,-0.31048 0.26953,-0.5039 0.10759,-0.43417 0.80706,-1.83499 1.05469,-2.11328 0.10024,-0.11271 0.18164,-0.29567 0.18164,-0.40625 0,-0.11058 0.0816,-0.26821 0.17968,-0.34961 0.0981,-0.0814 0.36367,-0.64166 0.5918,-1.2461 0.22813,-0.60444 0.46866,-1.13272 0.53516,-1.17382 0.0664,-0.0411 0.12109,-0.17005 0.12109,-0.28516 0,-0.11511 0.0925,-0.30925 0.20508,-0.43359 0.11253,-0.12434 0.28235,-0.56763 0.37695,-0.98438 0.2258,-0.99452 0.49776,-1.76762 1.16211,-3.30859 0.11235,-0.26068 0.20408,-0.58285 0.20508,-0.71485 0.003,-0.36405 0.44842,-1.71598 0.62305,-1.89062 0.0846,-0.0846 0.15429,-0.28858 0.15429,-0.45508 0,-0.16651 0.0811,-0.49644 0.17969,-0.73242 0.0986,-0.23598 0.27636,-0.92085 0.39649,-1.52149 0.37823,-1.89116 0.73669,-3.54352 0.85546,-3.94726 0.063,-0.21419 0.17836,-0.7929 0.25586,-1.28516 0.0775,-0.49227 0.19723,-0.99919 0.26563,-1.12695 0.0684,-0.12776 0.12303,-0.49159 0.12305,-0.80859 0,-0.31701 0.0815,-0.80371 0.17968,-1.08204 0.0982,-0.27833 0.22074,-0.88519 0.27344,-1.34765 0.0527,-0.46246 0.13429,-0.89931 0.17969,-0.97071 0.12146,-0.19091 0.39185,-1.53859 0.54687,-2.72655 0.0745,-0.57117 0.2194,-1.335962 0.32227,-1.699222 0.10283,-0.36325 0.18553,-0.93789 0.18555,-1.27734 0,-0.42062 0.0828,-0.72233 0.25976,-0.94727 0.21972,-0.27939 0.25977,-0.52532 0.25977,-1.60937 0,-1.16934 0.022,-1.28125 0.24609,-1.28125 0.23414,0 0.23656,-0.0316 0.0508,-0.66602 -0.22137,-0.75513 -0.19177,-1.29486 0.21094,-3.85742 0.14968,-0.95243 0.27339,-2.26593 0.27539,-2.91992 0.002,-0.65399 0.0615,-1.62688 0.13086,-2.16211 0.0694,-0.53523 0.18367,-2.25911 0.25391,-3.83008 0.0702,-1.57096 0.18706,-3.88186 0.25976,-5.13672 l 0.13281,-2.2832 0.5625,-0.58789 c 0.37718,-0.39365 0.61257,-0.78321 0.71289,-1.18164 0.0824,-0.32734 0.2079,-0.63164 0.2793,-0.67578 0.0728,-0.0455 0.13079,-0.68907 0.13079,-1.48633 v -1.40429 l -0.49414,-0.44727 -0.49414,-0.44531 -1.39453,-0.0703 c 0.10877,0.11466 0.22134,0.22528 0.33203,0.33789 0.0819,0.33139 0.53243,1.17996 0.24609,0.99414 -0.3813,-0.24745 -0.43923,-0.9953 -0.78711,-1.34375 z m -1.58399,0.49023 c -0.009,0.02 -0.0204,0.0362 -0.0391,0.0332 -0.004,-7e-4 0.002,-0.007 0,-0.01 -0.0677,0.17072 -0.0517,0.15258 0.0391,-0.0234 z m -87.062486,0.13086 -0.44922,0.002 -0.53125,0.51954 -0.5332,0.51953 0.0273,1.00781 c 0.0144,0.55463 -0.0123,1.04746 -0.0586,1.09375 -0.0463,0.0463 -0.0846,0.38121 -0.0859,0.74414 -0.002,0.64879 0.0119,0.67171 0.85351,1.4375 l 0.85547,0.7793 0.17969,2.14257 c 0.0988,1.17805 0.24059,3.22214 0.31445,4.54297 0.16106,2.88013 0.34873,5.10717 0.52149,6.16602 0.0699,0.42838 0.1618,1.62491 0.20312,2.66015 0.0413,1.03525 0.13451,2.14449 0.20703,2.46485 0.0725,0.32035 0.21327,1.28489 0.3125,2.14258 0.0992,0.85768 0.24425,2.1147 0.32227,2.79297 0.078,0.67826 0.19343,1.43761 0.25781,1.6875 0.0644,0.24988 0.15442,0.8635 0.19922,1.36328 0.0448,0.499772 0.21734,1.608082 0.38281,2.464842 0.16547,0.85675 0.34013,1.88075 0.38867,2.27343 0.0485,0.39268 0.17035,1.00142 0.27149,1.35351 0.10114,0.3521 0.18359,0.85663 0.18359,1.1211 0,0.26446 0.0887,0.64706 0.19531,0.85156 0.25486,0.4886 0.25781,1.45983 0.006,1.55664 -0.15391,0.0591 -0.13096,0.16105 0.12696,0.55078 0.40354,0.6098 0.83768,2.26034 0.93359,3.55469 0.0614,0.82811 0.11259,1.00586 0.29297,1.00586 0.12053,0 0.28231,0.13233 0.35938,0.29297 0.21264,0.44324 0.55273,1.60655 0.55273,1.89062 0,0.13849 0.0802,0.31753 0.17773,0.39844 0.0975,0.0809 0.21438,0.41885 0.25977,0.75 0.0454,0.33115 0.12982,0.66554 0.1875,0.74414 0.0577,0.0786 0.23832,0.63922 0.40039,1.24609 0.16207,0.60688 0.37708,1.25971 0.47852,1.44922 0.10144,0.18951 0.18705,0.42345 0.18945,0.51953 0.002,0.0961 0.11596,0.40778 0.25391,0.69336 0.13794,0.28559 0.25505,0.60579 0.25976,0.71289 0.005,0.10709 0.0944,0.30868 0.19922,0.44727 0.10483,0.13859 0.19141,0.35547 0.19141,0.48242 0,0.12694 0.11125,0.45273 0.24804,0.72266 0.37216,0.73436 0.9687,2.07906 1.3125,2.95703 0.28776,0.73484 0.40015,0.93729 1.03516,1.87695 0.17927,0.26528 0.25976,0.59929 0.25976,1.07813 0,0.64675 0.0362,0.72812 0.55079,1.21875 0.38325,0.36543 0.69057,0.85195 1.0039,1.59375 0.24808,0.58731 0.49756,1.09751 0.55469,1.13281 0.0571,0.0353 0.32193,0.4758 0.58789,0.98047 0.61762,1.17198 0.74453,1.38902 0.92188,1.56641 0.0797,0.0797 0.14453,0.30625 0.14453,0.50195 0,0.19569 0.0556,0.38994 0.12304,0.43164 0.0675,0.0417 0.36449,0.56641 0.66016,1.16601 0.29567,0.5996 0.65051,1.19084 0.78711,1.31446 0.1366,0.12362 0.24805,0.28577 0.24805,0.35937 0,0.0736 0.11154,0.25299 0.24804,0.40039 0.13651,0.14739 0.49182,0.73601 0.79102,1.30664 0.2992,0.57063 0.72841,1.25425 0.95312,1.51954 0.75991,0.89707 2.33099,3.02516 2.66797,3.61328 0.10074,0.17582 0.51113,0.72019 0.91016,1.21093 1.19671,1.47177 1.41768,1.80565 1.6543,2.48438 0.12446,0.35694 0.24668,0.55345 0.27148,0.4375 0.0363,-0.16936 0.11998,-0.13588 0.42773,0.17187 0.21068,0.21069 0.38282,0.41408 0.38282,0.45118 0,0.0371 0.3137,0.42588 0.69726,0.86523 0.38355,0.43935 0.7348,0.9158 0.7793,1.05859 0.0445,0.1428 0.6345,0.87339 1.31055,1.62305 0.676048,0.74966 1.229418,1.45643 1.232418,1.57031 0.003,0.11387 0.12283,0.31219 0.26562,0.44141 0.1428,0.12923 0.25977,0.33917 0.25977,0.46484 0,0.12566 0.41307,0.56779 0.91797,0.98438 0.50491,0.41659 1.24889,1.05554 1.65429,1.41992 0.4054,0.36438 1.00873,0.82149 1.3418,1.01367 0.33308,0.19217 0.67747,0.43325 0.76367,0.53711 0.0862,0.10383 0.26634,0.18945 0.40039,0.18945 0.13405,0 0.24414,0.0444 0.24414,0.0996 0,0.0552 0.20324,0.41158 0.45313,0.79102 0.24989,0.37943 0.45507,0.78144 0.45507,0.89453 0,0.11309 0.0788,0.29744 0.17578,0.41016 0.21557,0.2504 0.47266,1.26505 0.47266,1.86523 0,0.26867 0.0964,0.5286 0.2461,0.66406 0.13531,0.12248 0.28533,0.47794 0.33203,0.78907 0.0467,0.31113 0.16788,0.63664 0.27148,0.72265 0.10355,0.086 0.18906,0.36797 0.18945,0.62696 4.4e-4,0.259 0.0887,0.63729 0.19532,0.84179 0.30262,0.58025 0.24252,1.02583 -0.19532,1.44532 -0.21419,0.20518 -0.39062,0.42854 -0.39062,0.49414 0,0.0656 -0.36795,0.59435 -0.81836,1.17578 -0.87519,1.12977 -1.38672,2.01932 -1.38672,2.4082 0,0.13185 -0.0882,0.31149 -0.19531,0.40039 -0.28415,0.23582 -0.28415,4.85705 0,5.53711 0.10712,0.25631 0.19531,0.62749 0.19531,0.82422 0,0.19673 0.0863,0.43063 0.19336,0.51953 0.10712,0.0889 0.19531,0.24896 0.19531,0.35547 0,0.10651 0.29146,0.53129 0.64844,0.94336 0.35698,0.41207 0.65039,0.80399 0.65039,0.87109 0,0.16021 0.56049,0.68312 0.92969,0.86719 0.35569,0.17733 0.43132,0.51603 0.62109,2.77539 0.0796,0.948 0.20153,1.99879 0.26953,2.33594 0.068,0.33714 0.18401,2.015 0.25782,3.72851 0.0737,1.71352 0.22034,4.63588 0.32617,6.49219 0.10581,1.85631 0.19258,4.48527 0.19336,5.8418 8.2e-4,1.35653 0.055,3.28365 0.12109,4.2832 0.2383,3.60637 0.13852,15.62693 -0.13281,15.9707 -0.0585,0.0741 -0.12489,0.51012 -0.14649,0.9668 l -0.0391,0.83008 -0.64844,0.38086 c -0.35698,0.2094 -0.98595,0.67169 -1.39648,1.02734 -0.64174,0.55595 -0.74609,0.70936 -0.74609,1.09766 1e-5,0.39548 -0.1244,0.56933 -1.00782,1.40039 -0.55487,0.52199 -1.07118,1.0873 -1.14648,1.25586 -0.44785,1.00213 -0.74184,1.62788 -0.84375,1.79883 -0.0639,0.10709 -0.24408,0.45801 -0.40039,0.77929 -0.35928,0.73847 -1.31996,1.90867 -2.13672,2.60157 -0.6955,0.59003 -2.408788,2.25995 -4.242178,4.13476 -0.6555,0.67031 -1.41701,1.37019 -1.69336,1.55664 -0.86295,0.58219 -1.81624,1.07818 -2.28907,1.18945 -0.64668,0.15227 -3.12139,1.17758 -3.57617,1.48243 -0.61842,0.41454 -1.11942,0.69807 -1.81055,1.02343 -1.15103,0.54186 -4.08984,3.07216 -4.08984,3.52149 0,0.15268 -0.59091,0.90095 -1.00586,1.27344 -0.28356,0.25456 -0.42187,0.49626 -0.42187,0.73828 0,0.19805 -0.0882,0.43258 -0.19532,0.52148 -0.12019,0.0998 -0.19641,0.39285 -0.19921,0.76367 -0.005,0.62858 -0.36931,1.55691 -0.37891,0.96485 -0.01,-0.58528 -0.23185,-0.39295 -0.44727,0.38672 -0.12258,0.44364 -0.30786,0.93701 -0.41211,1.09765 -0.15138,0.23329 -0.15673,0.29297 -0.0195,0.29297 0.0945,0 0.24245,-0.0705 0.32813,-0.15625 0.10823,-0.10823 0.14131,0.0648 0.14844,0.56836 0.44833,-0.35389 1.01003,-0.61701 1.66015,-0.76367 0.0152,-0.0656 0.0383,-0.13876 0.0391,-0.1875 0.002,-0.16747 0.0894,-0.45041 0.19141,-0.62891 0.10204,-0.17848 0.18695,-0.57818 0.18945,-0.88672 0.003,-0.32001 0.0881,-0.64478 0.19922,-0.75586 0.1071,-0.10709 0.19531,-0.35919 0.19531,-0.56054 0,-0.28223 0.074,-0.38447 0.32422,-0.44727 0.17849,-0.0448 0.32422,-0.14515 0.32422,-0.22265 0,-0.0775 0.17644,-0.39943 0.39063,-0.7168 0.21419,-0.31736 0.39047,-0.61797 0.39257,-0.66797 0.0149,-0.35598 2.48254,-2.3932 3.43555,-2.83594 0.35698,-0.16586 0.88237,-0.44776 1.16797,-0.62695 0.28558,-0.17921 0.60775,-0.36722 0.71484,-0.41602 0.1071,-0.0488 0.22407,-0.12389 0.25977,-0.16796 0.0941,-0.11622 2.73164,-1.17946 3.11523,-1.25586 0.47026,-0.0937 1.69228,-0.69655 2.11914,-1.04493 0.20182,-0.16471 0.40764,-0.29882 0.45704,-0.29882 0.0737,0 1.41928,-1.30388 2.77929,-2.69336 0.157238,-0.16064 0.390838,-0.29297 0.519528,-0.29297 0.12868,0 0.27176,-0.10166 0.31836,-0.22656 0.18943,-0.50847 2.47321,-2.73049 3.18555,-3.09961 0.19634,-0.10175 0.35742,-0.27779 0.35742,-0.39063 0,-0.11284 0.14572,-0.32054 0.32422,-0.46094 0.17849,-0.1404 0.32422,-0.33068 0.32422,-0.42382 0,-0.0932 0.0905,-0.24414 0.20117,-0.33594 0.11063,-0.0918 0.32194,-0.43166 0.46875,-0.75391 0.1468,-0.32225 0.34776,-0.66612 0.44726,-0.76562 0.0996,-0.0995 0.18163,-0.26293 0.18165,-0.36329 0,-0.10024 0.11529,-0.37366 0.25781,-0.60742 0.14253,-0.23377 0.25951,-0.52145 0.25976,-0.63867 6.2e-4,-0.26905 1.13209,-1.53906 1.3711,-1.53906 0.098,0 0.2387,-0.11219 0.3125,-0.25 0.0737,-0.13781 0.26498,-0.27017 0.42578,-0.29297 0.26768,-0.038 0.28861,-0.0988 0.24805,-0.72266 -0.0244,-0.37483 0.0126,-0.68164 0.0801,-0.68164 0.0675,0 0.28961,-0.15616 0.49414,-0.3457 0.4538,-0.42057 1.55777,-1.08203 1.80469,-1.08203 0.0991,0 0.21642,-0.11697 0.26172,-0.25977 0.0453,-0.14279 0.13487,-0.25976 0.19727,-0.25976 0.0624,0 0.079,-0.40844 0.0371,-0.90821 -0.0475,-0.56718 -0.0279,-0.91015 0.0527,-0.91015 0.31302,0 0.4341,-13.08078 0.16016,-17.33008 -0.0645,-0.99955 -0.1183,-2.92667 -0.11915,-4.2832 -8.2e-4,-1.35653 -0.0895,-3.98549 -0.19531,-5.8418 -0.10583,-1.85631 -0.25247,-4.77671 -0.32617,-6.49023 -0.0738,-1.71351 -0.19378,-3.4067 -0.26758,-3.76368 -0.0738,-0.35698 -0.15574,-1.08756 -0.18164,-1.62304 -0.026,-0.53547 -0.11411,-1.50002 -0.19531,-2.14258 -0.13889,-1.0992 -0.17501,-1.19288 -0.61719,-1.58985 -0.25849,-0.23204 -0.54738,-0.42187 -0.64258,-0.42187 -0.0952,0 -0.17382,-0.11558 -0.17382,-0.25586 0,-0.14029 -0.12111,-0.31904 -0.26954,-0.39844 -0.14844,-0.0794 -0.32628,-0.31021 -0.39648,-0.51172 -0.0703,-0.2015 -0.24256,-0.39544 -0.38086,-0.43164 -0.18036,-0.0472 -0.25,-0.17872 -0.25,-0.46679 0,-0.27043 -0.0642,-0.40235 -0.19531,-0.40235 -0.12801,0 -0.19531,-0.1275 -0.19531,-0.37304 0,-0.20547 -0.0863,-0.58353 -0.19336,-0.83985 -0.14142,-0.33846 -0.19532,-0.96013 -0.19532,-2.27148 0,-1.44665 0.0393,-1.83733 0.19532,-1.9668 0.10712,-0.0889 0.19336,-0.27049 0.19336,-0.40234 0,-0.30405 0.51602,-1.31779 0.74023,-1.45508 0.0932,-0.0571 0.16797,-0.16263 0.16797,-0.23633 0,-0.15429 0.89436,-1.29613 1.13672,-1.45117 0.0893,-0.0571 0.16211,-0.22032 0.16211,-0.36328 0,-0.1713 0.1316,-0.30623 0.38476,-0.39453 0.21127,-0.0737 0.4206,-0.25291 0.4668,-0.39844 0.12371,-0.38977 -0.0666,-2.14095 -0.27734,-2.54492 -0.1001,-0.19197 -0.18321,-0.56353 -0.1836,-0.82617 -4.4e-4,-0.26263 -0.0909,-0.56751 -0.20117,-0.67774 -0.11022,-0.11022 -0.23524,-0.4921 -0.27734,-0.84766 -0.053,-0.44727 -0.13986,-0.65794 -0.28321,-0.68554 -0.15779,-0.0304 -0.19747,-0.167 -0.16797,-0.57617 0.0213,-0.29547 -0.0215,-0.57454 -0.0937,-0.61914 -0.0722,-0.0446 -0.16995,-0.34658 -0.21875,-0.67188 -0.0488,-0.3253 -0.16947,-0.62246 -0.26757,-0.66016 -0.0981,-0.0377 -0.17969,-0.23876 -0.17969,-0.44531 0,-0.20655 -0.0509,-0.375 -0.11524,-0.375 -0.17593,0 -0.69385,-0.92833 -0.7246,-1.29883 -0.0148,-0.1785 -0.0357,-0.39712 -0.0469,-0.48632 -0.0128,-0.10206 -0.23296,-0.16211 -0.5918,-0.16211 -0.35526,0 -0.59542,-0.0641 -0.63672,-0.17188 -0.0365,-0.0951 -0.39805,-0.34113 -0.80468,-0.54687 -0.40664,-0.20574 -0.98285,-0.64663 -1.28125,-0.97852 -0.2984,-0.33189 -0.67018,-0.64251 -0.82422,-0.69141 -0.15404,-0.0489 -0.2979,-0.21413 -0.32031,-0.36718 -0.0278,-0.18993 -0.17489,-0.3144 -0.4629,-0.38868 -0.33078,-0.0853 -0.42187,-0.17588 -0.42187,-0.42382 0,-0.1834 -0.10922,-0.37448 -0.25976,-0.45508 -0.14279,-0.0764 -0.25977,-0.24038 -0.25977,-0.36328 0,-0.12291 -0.26141,-0.51459 -0.58203,-0.8711 -0.32062,-0.3565 -0.617,-0.75006 -0.6582,-0.875 -0.0412,-0.12495 -0.13338,-0.22851 -0.20508,-0.22851 -0.16143,0 -0.50195,-0.32962 -0.50195,-0.48633 0,-0.0636 -0.145728,-0.24128 -0.324218,-0.39648 -0.17849,-0.1552 -0.32422,-0.34177 -0.32422,-0.41407 0,-0.25904 -1.48667,-1.94726 -1.71485,-1.94726 -0.1341,0 -0.23216,-0.0951 -0.23242,-0.22657 -2.1e-4,-0.12493 -0.17481,-0.34548 -0.38867,-0.48828 -0.24858,-0.16597 -0.41785,-0.41193 -0.46875,-0.68164 -0.0438,-0.23204 -0.15765,-0.42187 -0.25195,-0.42187 -0.0943,0 -0.20971,-0.13038 -0.25782,-0.29102 -0.0481,-0.16065 -0.49019,-0.82667 -0.98242,-1.47851 -0.49222,-0.65183 -0.89453,-1.22841 -0.89453,-1.28321 0,-0.0548 -0.20519,-0.34934 -0.45508,-0.65429 -0.24988,-0.30496 -0.45507,-0.59212 -0.45507,-0.63672 0,-0.0889 -0.0188,-0.11272 -0.7754,-1.01758 -0.28721,-0.34348 -0.52148,-0.67473 -0.52148,-0.73633 0,-0.0616 -0.17487,-0.28614 -0.38672,-0.49805 -0.21186,-0.21181 -0.62571,-0.84516 -0.91992,-1.40624 -0.29421,-0.56115 -0.64669,-1.13972 -0.7832,-1.28711 -0.13651,-0.1474 -0.24805,-0.33728 -0.24805,-0.42188 0,-0.0846 -0.12465,-0.27895 -0.27734,-0.43164 -0.30888,-0.30888 -1.15039,-1.88473 -1.15039,-2.1543 0,-0.0949 -0.0863,-0.20694 -0.19336,-0.24804 -0.10711,-0.0411 -0.19532,-0.23156 -0.19532,-0.42383 0,-0.19227 -0.0648,-0.41444 -0.14453,-0.49414 -0.16556,-0.16556 -0.25226,-0.30907 -0.93164,-1.54297 -0.27097,-0.49213 -0.5791,-1.04221 -0.68359,-1.2207 -0.10449,-0.17849 -0.42526,-0.84962 -0.71289,-1.49219 -0.69417,-1.55043 -0.70034,-1.55878 -1.01758,-1.54688 -0.24735,0.009 -0.27539,-0.0607 -0.27539,-0.6875 0,-0.48247 -0.0781,-0.81416 -0.25781,-1.08008 -0.63501,-0.93966 -0.74741,-1.14211 -1.03516,-1.87695 -0.3438,-0.87797 -0.94035,-2.22462 -1.3125,-2.95898 -0.1368,-0.26993 -0.25,-0.59377 -0.25,-0.72071 0,-0.12695 -0.0846,-0.34383 -0.18945,-0.48242 -0.10483,-0.13858 -0.19452,-0.34017 -0.19922,-0.44726 -0.005,-0.1071 -0.12182,-0.42926 -0.25977,-0.71485 -0.13795,-0.28558 -0.25346,-0.59728 -0.25586,-0.69336 -0.002,-0.0961 -0.0861,-0.33002 -0.1875,-0.51953 -0.10144,-0.1895 -0.31839,-0.84039 -0.48047,-1.44726 -0.16207,-0.60687 -0.34075,-1.1675 -0.39843,-1.2461 -0.0577,-0.0786 -0.14211,-0.41494 -0.1875,-0.74609 -0.0454,-0.33116 -0.16227,-0.66713 -0.25977,-0.74805 -0.0975,-0.0809 -0.17773,-0.25995 -0.17773,-0.39844 0,-0.32899 -0.3597,-1.50643 -0.59375,-1.94335 -0.10109,-0.18872 -0.23029,-0.56839 -0.28711,-0.84375 -0.0859,-0.41632 -0.16248,-0.50687 -0.45508,-0.54102 -0.22456,-0.0262 -0.35222,0.0199 -0.35352,0.12891 -10e-4,0.12539 -0.0366,0.11917 -0.1289,-0.0234 -0.0692,-0.1071 -0.12405,-0.31034 -0.12305,-0.45313 0.002,-0.23851 0.0132,-0.24191 0.13477,-0.0332 0.0728,0.12494 0.21676,0.22656 0.32031,0.22656 0.2718,0 0.26685,-1.27635 -0.006,-1.38086 -0.15176,-0.0582 -0.19531,-0.31568 -0.19531,-1.16796 0,-0.85236 -0.0436,-1.10973 -0.19532,-1.16797 -0.13421,-0.0515 -0.19479,-0.26229 -0.19531,-0.67774 -4.4e-4,-0.33149 -0.0887,-0.77011 -0.19531,-0.97461 -0.10645,-0.2049 -0.19334,-0.58717 -0.19334,-0.85164 0,-0.26446 -0.0824,-0.769 -0.18359,-1.12109 -0.1011,-0.35208 -0.22295,-0.9628 -0.27149,-1.35547 -0.0485,-0.39268 -0.22515,-1.41472 -0.39062,-2.27147 -0.16547,-0.85676 -0.33606,-1.967032 -0.38086,-2.466802 -0.0448,-0.49978 -0.13484,-1.1134 -0.19922,-1.36328 -0.0644,-0.24989 -0.18174,-1.00924 -0.25976,-1.6875 -0.078,-0.67827 -0.22304,-1.93333 -0.32227,-2.79102 -0.0992,-0.85769 -0.23803,-1.82222 -0.31055,-2.14258 -0.0725,-0.32035 -0.16571,-1.42959 -0.20703,-2.46484 -0.0413,-1.03525 -0.13323,-2.23178 -0.20312,-2.66016 -0.16534,-1.01335 -0.35325,-3.20515 -0.51758,-6.03711 -0.15313,-2.63888 -0.36831,-5.61516 -0.47656,-6.58203 -0.0626,-0.55864 -0.12241,-0.6804 -0.34961,-0.71289 -0.15093,-0.0216 -0.41692,-0.25765 -0.58985,-0.52539 -0.18685,-0.28928 -0.41755,-0.48828 -0.56836,-0.48828 -0.18464,0 -0.21799,-0.0441 -0.125,-0.16211 0.24226,-0.30757 0.29425,-0.86608 0.13672,-1.45508 -0.17472,-0.65325 -0.33998,-0.89051 1.13477,-0.99609 -0.74736,-0.3651 -1.07656,-0.8729 -1.03711,-1.34766 z m 87.742176,24.79102 c 0.008,0.003 0.0164,0.0148 0.0254,0.0371 0.036,0.0892 0.036,0.23497 0,0.32422 -0.036,0.0892 -0.0664,0.0164 -0.0664,-0.16211 0,-0.13387 0.0175,-0.20797 0.041,-0.19922 z M 41.922634,110.6843 c 0.035,0.0436 0.0864,0.2014 0.17578,0.49609 0.16387,0.54032 0.17109,0.67774 0.0352,0.67774 -0.20428,0 -0.34001,-0.4791 -0.28125,-0.98633 0.0186,-0.16015 0.0353,-0.23108 0.0703,-0.1875 z m 3.58984,17.82617 c -0.007,0.0326 0.0287,0.14158 0.10352,0.35157 0.11997,0.33677 0.17589,0.39269 0.21289,0.21289 0.0274,-0.13339 -0.0457,-0.33864 -0.16211,-0.45508 -0.0979,-0.0979 -0.14759,-0.14199 -0.1543,-0.10938 z m 44.216788,103.94141 c 0.0714,0 0.13086,0.0595 0.13086,0.13086 0,0.0714 -0.0595,0.1289 -0.13086,0.12891 -0.0714,0 -0.1289,-0.0575 -0.1289,-0.12891 0,-0.0714 0.0575,-0.13086 0.1289,-0.13086 z" />
  <path
     style="fill:#000000;stroke-width:0.12731399"
     d="m 165.1904,260.16689 c -0.17515,-0.19753 -0.18969,-0.991 -0.12828,-6.99599 l 0.0692,-6.7732 1.41352,-1.39056 1.41353,-1.39057 0.89119,-0.0855 c 2.87651,-0.27589 5.9812,-0.72439 6.07414,-0.87746 0.0506,-0.0834 0.54909,-0.81042 1.10773,-1.61568 0.55864,-0.80526 1.63185,-2.38077 2.3849,-3.50114 0.75305,-1.12036 1.84322,-2.64726 2.4226,-3.39312 l 1.05342,-1.35611 -0.24853,-1.69942 c -0.13669,-0.93469 -0.2508,-2.07183 -0.25357,-2.52698 -0.003,-0.45515 -0.12337,-1.60097 -0.26799,-2.54628 -0.14461,-0.9453 -0.29374,-2.21943 -0.33139,-2.83138 l -0.0684,-1.11266 -4.18283,-4.01933 c -2.30056,-2.21063 -5.28706,-5.17977 -6.63665,-6.5981 -2.37636,-2.49737 -2.49445,-2.64683 -3.74092,-4.73486 -2.54577,-4.26453 -3.86137,-6.39908 -5.48765,-8.90372 -1.69518,-2.61072 -1.71996,-2.66573 -2.06408,-4.5833 -0.18619,-1.03751 -0.45744,-2.52204 -0.76767,-4.20137 -0.1423,-0.77024 -0.32071,-1.7442 -0.39647,-2.16433 -0.0758,-0.42014 -0.18637,-1.0217 -0.2458,-1.3368 -0.0594,-0.3151 -0.16964,-0.91666 -0.24491,-1.3368 -0.0753,-0.42013 -0.25526,-1.39408 -0.39997,-2.16433 -0.31415,-1.67215 -0.47376,-2.55979 -0.62957,-3.50113 -0.0638,-0.38513 -0.32114,-1.67419 -0.57201,-2.86457 -0.25086,-1.19039 -0.48694,-2.33621 -0.52463,-2.54628 -0.0376,-0.21007 -0.12548,-0.50084 -0.19512,-0.64615 -0.13251,-0.27654 -0.0998,-1.37365 0.12687,-4.25544 0.0744,-0.94531 0.2236,-3.15102 0.33165,-4.90159 0.10805,-1.75056 0.2641,-4.09951 0.34676,-5.21987 0.0827,-1.12037 0.16017,-4.52877 0.17223,-7.57423 l 0.022,-5.53721 1.75642,-1.67608 c 1.83894,-1.75481 1.9412,-1.8291 2.86589,-2.08184 0.3151,-0.0861 0.71614,-0.20494 0.8912,-0.26404 0.17505,-0.0591 3.26878,-0.19407 6.87495,-0.29993 3.60617,-0.10588 7.67385,-0.22614 9.03929,-0.26727 5.12874,-0.15446 16.08902,-0.35983 19.03344,-0.35665 1.68055,0.002 4.48783,0.0644 6.2384,0.13899 1.75056,0.0746 8.16718,0.19658 14.25916,0.27101 6.09197,0.0744 12.07891,0.19678 13.30431,0.27188 3.21397,0.197 5.2578,0.36253 6.49301,0.52588 l 1.08217,0.14312 1.0635,1.03263 c 0.58491,0.56794 1.33642,1.35589 1.67,1.75097 l 0.60651,0.71836 0.0866,2.08255 c 0.0476,1.14541 0.16641,3.85859 0.264,6.0293 0.0976,2.1707 0.23905,5.55089 0.31439,7.51152 0.0753,1.96064 0.19386,4.10906 0.2634,4.77428 0.16591,1.58724 0.15976,6.24226 -0.0104,7.9118 -0.0739,0.72516 -0.33206,2.32106 -0.57363,3.54646 -0.24156,1.22539 -0.49654,2.5431 -0.56661,2.92822 -0.34729,1.90883 -1.24567,6.70471 -1.52632,8.14809 -0.12935,0.66522 -0.35849,1.86834 -0.50921,2.6736 -0.57879,3.09227 -0.90025,4.65689 -1.00988,4.91518 -0.0626,0.14752 -0.71278,1.17877 -1.44481,2.29165 -0.73204,1.11288 -2.2909,3.54165 -3.46413,5.39725 -1.17323,1.8556 -2.55335,4.03439 -3.06693,4.84175 -0.89049,1.39991 -1.23701,1.7725 -7.47669,8.03918 l -6.54292,6.57125 -0.0811,2.65519 c -0.0446,1.46036 -0.16999,3.28541 -0.27865,4.05566 -0.10866,0.77024 -0.22815,1.88743 -0.26554,2.48262 l -0.068,1.08217 0.52596,0.68098 c 0.28927,0.37454 1.0292,1.40578 1.6443,2.29165 1.79508,2.58532 4.5089,6.42787 4.80179,6.79898 0.24456,0.30987 0.41135,0.36078 1.78239,0.54405 1.52323,0.20362 2.99715,0.37692 4.48034,0.52677 0.77294,0.0781 0.83327,0.11061 1.59142,0.85775 0.43341,0.42713 1.00157,1.09401 1.26257,1.48196 l 0.47455,0.70535 0.0758,6.42423 c 0.0431,3.65513 0.0268,6.58884 -0.038,6.80616 l -0.11379,0.38194 -2.1553,0.0202 -2.1553,0.0202 0.8912,-0.17956 c 2.4234,-0.48826 2.21138,-0.40674 2.30105,-0.88474 0.0449,-0.239 0.0608,-3.02827 0.0354,-6.19837 l -0.0461,-5.76381 -0.72894,-0.98215 c -0.40092,-0.54018 -0.85894,-1.06354 -1.01784,-1.16304 -0.15889,-0.0995 -0.86181,-0.24664 -1.56204,-0.32701 -0.70022,-0.0804 -1.67418,-0.19947 -2.16434,-0.26465 -0.49016,-0.0652 -1.4572,-0.18589 -2.14899,-0.26823 -0.85682,-0.10197 -1.31245,-0.21506 -1.42925,-0.35471 -0.33959,-0.40602 -1.79271,-2.42353 -2.97843,-4.13522 -0.66521,-0.9603 -1.9709,-2.81779 -2.90154,-4.12776 l -1.69206,-2.38176 0.0473,-1.46412 c 0.026,-0.80526 0.139,-2.1516 0.25111,-2.99187 0.35352,-2.6496 0.47632,-4.41656 0.39388,-5.66725 l -0.0798,-1.21124 6.66939,-6.69144 c 6.1701,-6.19052 6.72785,-6.78607 7.45041,-7.95535 1.77837,-2.87789 4.64041,-7.39568 6.29484,-9.93656 l 1.7655,-2.71144 0.32606,-1.69217 c 0.17934,-0.9307 0.37708,-1.94999 0.43944,-2.26509 0.0624,-0.3151 0.17438,-0.91666 0.24892,-1.3368 0.0745,-0.42013 0.24772,-1.33679 0.38483,-2.03703 0.28529,-1.457 0.83202,-4.34781 1.03537,-5.4745 0.0758,-0.42013 0.1865,-1.02169 0.24592,-1.33679 0.0595,-0.31511 0.16986,-0.91666 0.2454,-1.3368 0.0755,-0.42014 0.37823,-1.93836 0.67266,-3.37382 l 0.53534,-2.60994 -2.6e-4,-3.69211 c -1.3e-4,-2.03065 -0.067,-4.92386 -0.14877,-6.42935 -0.0817,-1.50548 -0.20755,-4.12511 -0.27973,-5.82137 -0.45833,-10.77172 -0.51448,-11.653 -0.76831,-12.05915 -0.13373,-0.21397 -0.7474,-0.88222 -1.36372,-1.48501 -1.11463,-1.09013 -1.12533,-1.09673 -2.01179,-1.24023 -0.76826,-0.12437 -3.07532,-0.32123 -7.00227,-0.5975 -0.56018,-0.0394 -5.97421,-0.13211 -12.03117,-0.206 -6.05696,-0.0739 -12.27307,-0.1829 -13.81357,-0.24224 -6.34681,-0.24451 -9.15609,-0.2757 -12.34946,-0.13712 -1.82059,0.079 -5.34771,0.17306 -7.83807,0.20901 -4.55106,0.0657 -10.57121,0.22096 -17.30644,0.44636 -3.09675,0.10363 -3.73862,0.15911 -4.38027,0.37856 -0.41349,0.14143 -0.82344,0.25714 -0.91097,0.25714 -0.20395,0 -0.97738,0.64528 -2.37943,1.98516 l -1.11399,1.06462 -0.001,5.25457 c -7.3e-4,3.23599 -0.0751,6.4284 -0.19342,8.31012 -0.10569,1.68055 -0.25113,4.02949 -0.3232,5.21988 -0.13993,2.31145 -0.3269,4.92523 -0.45388,6.34503 -0.0459,0.51294 -0.0233,0.98361 0.0549,1.14582 0.073,0.15142 0.16384,0.47582 0.20189,0.7209 0.0381,0.24508 0.18643,0.98987 0.32973,1.65508 0.31939,1.48273 0.72355,3.49663 0.90704,4.51965 0.0753,0.42013 0.19027,1.05034 0.25536,1.40045 0.36865,1.98279 0.77073,4.17078 0.88905,4.83793 0.0745,0.42014 0.18411,1.0217 0.24353,1.3368 0.0594,0.3151 0.1697,0.91666 0.24504,1.3368 0.0753,0.42013 0.31221,1.70919 0.52636,2.86456 0.21416,1.15538 0.44444,2.42935 0.51172,2.83104 0.16895,1.00855 0.2889,1.2856 1.06185,2.45249 2.07842,3.13776 3.43461,5.2968 5.08672,8.098 0.14894,0.25254 0.85575,1.42701 1.57068,2.60994 l 1.29987,2.15078 3.92001,3.885 c 2.15599,2.13675 5.14477,5.07041 6.64172,6.51927 2.42101,2.34323 2.71057,2.66656 2.62074,2.9263 -0.14833,0.42893 -0.13163,1.3033 0.0469,2.45636 0.0867,0.56018 0.214,1.64872 0.28282,2.41897 0.0688,0.77025 0.22079,2.20253 0.33772,3.18285 0.11692,0.98032 0.235,2.10022 0.26238,2.48866 l 0.0498,0.70627 -1.13494,1.45807 c -0.62422,0.80194 -1.86353,2.5466 -2.75402,3.87703 -2.14785,3.20895 -3.22702,4.78099 -3.50182,5.10111 -0.17982,0.20949 -0.4965,0.2963 -1.55197,0.42549 -3.00285,0.36754 -4.16708,0.50654 -4.91553,0.58686 -0.78701,0.0845 -0.79071,0.0868 -1.86042,1.17346 l -1.07184,1.08884 -0.0937,6.10062 c -0.0847,5.51325 -0.074,6.12244 0.11133,6.32717 0.36214,0.40018 1.46467,0.65911 3.25762,0.76507 1.68298,0.0995 1.65624,0.10195 -1.28524,0.11999 -2.71483,0.0166 -3.02299,-0.003 -3.20153,-0.20437 z"
     id="path2615"
     inkscape:connector-curvature="0" />
  <path
     style="fill:none;stroke:#000000;stroke-width:1.75748026;stroke-linecap:butt;stroke-linejoin:miter;stroke-miterlimit:4;stroke-dasharray:none;stroke-opacity:1"
     d="m 36.967554,67.783918 89.265616,-0.26757 v 0 0"
     id="path2765"
     inkscape:connector-curvature="0" />
</svg>
